<?xml version="1.0" encoding="UTF-8"?>
<svg width="11px" height="6px" viewBox="0 0 11 6" version="1.1" xmlns="http://www.w3.org/2000/svg" xmlns:xlink="http://www.w3.org/1999/xlink">
    <!-- Generator: Sketch 50.2 (55047) - http://www.bohemiancoding.com/sketch -->
    <title>arrow-down</title>
    <desc>Created with Sketch.</desc>
    <defs></defs>
    <g id="Page-1" stroke="none" stroke-width="1" fill="none" fill-rule="evenodd">
        <g id="phone-number" transform="translate(-653.000000, -356.000000)" fill="#99CAFF">
            <g id="Group-7" transform="translate(20.000000, 290.000000)">
                <g id="Group-6">
                    <g id="Group-9">
                        <g id="Group-8" transform="translate(435.000000, 0.000000)">
                            <g id="Group-7">
                                <path d="M208.212106,66.8459796 C208.212106,66.7644394 208.171176,66.6727067 208.10978,66.6115515 L207.598152,66.1019253 C207.536756,66.0407701 207.444663,66 207.362803,66 C207.280942,66 207.188849,66.0407701 207.127454,66.1019253 L203.106053,70.1075878 L199.084653,66.1019253 C199.023257,66.0407701 198.931164,66 198.849303,66 C198.75721,66 198.67535,66.0407701 198.613954,66.1019253 L198.102326,66.6115515 C198.04093,66.6727067 198,66.7644394 198,66.8459796 C198,66.9275198 198.04093,67.0192525 198.102326,67.0804077 L202.870704,71.8301246 C202.932099,71.8912797 203.024192,71.9320498 203.106053,71.9320498 C203.187914,71.9320498 203.280007,71.8912797 203.341402,71.8301246 L208.10978,67.0804077 C208.171176,67.0192525 208.212106,66.9275198 208.212106,66.8459796 L208.212106,66.8459796 Z" id="arrow-down"></path>
                            </g>
                        </g>
                    </g>
                </g>
            </g>
        </g>
    </g>
</svg>