<svg width="100" height="81" viewBox="0 0 100 81" fill="none" xmlns="http://www.w3.org/2000/svg">
<path d="M71.3236 80.5255C72.3703 80.5255 73.3331 80.1449 74.1286 79.2993L98.2844 54.4367C98.9962 53.7179 99.4565 52.6185 99.4565 51.6883C99.4565 49.4473 97.9077 47.9251 95.7308 47.9251C94.6841 47.9251 93.8468 48.3056 93.177 48.9822L81.413 61.1597L74.631 69.1513L75.0496 59.257V4.41556C75.0496 2.21683 73.5006 0.652344 71.3236 0.652344C69.1467 0.652344 67.5977 2.21683 67.5977 4.41556V59.257L68.0163 69.1513L61.2342 61.1597L49.4703 48.9822C48.8005 48.3056 47.9631 47.9251 46.9165 47.9251C44.7396 47.9251 43.1906 49.4473 43.1906 51.6883C43.1906 52.6185 43.6511 53.7179 44.3628 54.4367L68.5187 79.2993C69.3141 80.1449 70.277 80.5255 71.3236 80.5255ZM28.5798 80.5255C30.7568 80.5255 32.3058 78.961 32.3058 76.7623V21.9208L31.8871 12.0266L38.6692 20.0181L50.4331 32.1957C51.103 32.8722 51.9403 33.2528 52.9869 33.2528C55.1638 33.2528 56.671 31.7306 56.671 29.4896C56.671 28.5593 56.2523 27.46 55.5407 26.7411L31.3847 1.87856C30.5893 1.03289 29.5845 0.652344 28.5798 0.652344C27.5332 0.652344 26.5704 1.03289 25.7749 1.87856L1.61898 26.7411C0.907288 27.46 0.446777 28.5593 0.446777 29.4896C0.446777 31.7306 1.99577 33.2528 4.13086 33.2528C5.21935 33.2528 6.05664 32.8722 6.72648 32.1957L18.4905 20.0181L25.2725 12.0266L24.8538 21.9208V76.7623C24.8538 78.961 26.4028 80.5255 28.5798 80.5255Z" fill="black" fill-opacity="0.75"/>
</svg>
