<svg width="26" height="24" xmlns="http://www.w3.org/2000/svg"><g fill="#FFF" fill-rule="nonzero"><path d="M26 18.611l-5.413-5.355v4.253h-.53c-2.476 0-4.073-1.444-5.52-3.46-.399.643-.82 1.313-1.275 1.977 1.642 2.061 3.711 3.686 6.795 3.686h.53v4.252L26 18.611z"/><path d="M26 5.39L20.587.036v4.252h-.53c-4.71 0-7.054 3.792-9.122 7.138-2.018 3.264-3.76 6.083-7.22 6.083H0v2.203h3.714c4.71 0 7.055-3.792 9.122-7.137 2.018-3.264 3.76-6.084 7.221-6.084h.53v4.253L26 5.39z"/><path d="M3.714 4.288H0v2.204h3.714c2.477 0 4.073 1.443 5.52 3.46.4-.644.82-1.313 1.275-1.977C8.868 5.913 6.8 4.288 3.714 4.288z"/></g></svg>