<svg width="101" height="81" viewBox="0 0 101 81" fill="none" xmlns="http://www.w3.org/2000/svg">
<path d="M72.0368 80.5255C73.0939 80.5255 74.0664 80.1449 74.8698 79.2993L99.2672 54.4367C99.9861 53.7179 100.451 52.6185 100.451 51.6883C100.451 49.4473 98.8867 47.9251 96.688 47.9251C95.6309 47.9251 94.7852 48.3056 94.1087 48.9822L82.2271 61.1597L75.3772 69.1513L75.8 59.257V4.41556C75.8 2.21683 74.2355 0.652344 72.0368 0.652344C69.8381 0.652344 68.2736 2.21683 68.2736 4.41556V59.257L68.6964 69.1513L61.8465 61.1597L49.9649 48.9822C49.2884 48.3056 48.4427 47.9251 47.3856 47.9251C45.1869 47.9251 43.6224 49.4473 43.6224 51.6883C43.6224 52.6185 44.0875 53.7179 44.8064 54.4367L69.2038 79.2993C70.0072 80.1449 70.9797 80.5255 72.0368 80.5255ZM28.8655 80.5255C31.0643 80.5255 32.6288 78.961 32.6288 76.7623V21.9208L32.2059 12.0266L39.0558 20.0181L50.9374 32.1957C51.614 32.8722 52.4596 33.2528 53.5167 33.2528C55.7154 33.2528 57.2376 31.7306 57.2376 29.4896C57.2376 28.5593 56.8148 27.46 56.096 26.7411L31.6985 1.87856C30.8951 1.03289 29.8803 0.652344 28.8655 0.652344C27.8085 0.652344 26.836 1.03289 26.0326 1.87856L1.6351 26.7411C0.916288 27.46 0.451172 28.5593 0.451172 29.4896C0.451172 31.7306 2.01565 33.2528 4.1721 33.2528C5.27147 33.2528 6.11713 32.8722 6.79367 32.1957L18.6753 20.0181L25.5252 12.0266L25.1023 21.9208V76.7623C25.1023 78.961 26.6668 80.5255 28.8655 80.5255Z" fill="black"/>
</svg>
