<svg width="100" height="101" viewBox="0 0 100 101" fill="none" xmlns="http://www.w3.org/2000/svg">
<path d="M1.6318 91.4067C-0.512289 93.5508 -0.575351 97.2083 1.6318 99.3524C3.83896 101.497 7.43346 101.497 9.64062 99.3524L50 58.9931L90.3594 99.3524C92.5035 101.497 96.161 101.56 98.3682 99.3524C100.512 97.1453 100.512 93.5508 98.3682 91.4067L57.9458 50.9842L98.3682 10.6249C100.512 8.48076 100.575 4.82319 98.3682 2.6791C96.098 0.471943 92.5035 0.471943 90.3594 2.6791L50 43.0385L9.64062 2.6791C7.43346 0.471943 3.7759 0.408881 1.6318 2.6791C-0.512289 4.88625 -0.512289 8.48076 1.6318 10.6249L41.9912 50.9842L1.6318 91.4067Z" fill="black"/>
</svg>
